<mxfile host="app.diagrams.net" modified="2023-10-13T09:24:11.226Z" agent="Mozilla/5.0 (Linux; arm_64; Android 13; 2109119DG) AppleWebKit/537.36 (KHTML, like Gecko) Chrome/116.0.5845.86 YaBrowser/23.9.4.86.00 SA/3 Mobile Safari/537.36" version="22.0.4" etag="fwnY_cNWAWeiM5zjz4fI" type="github">
  <diagram name="Страница — 1" id="5Zl7W1Nr9Gyq-zgNh8g8">
    <mxGraphModel>
      <root>
        <mxCell id="0" />
        <mxCell id="1" parent="0" />
      </root>
    </mxGraphModel>
  </diagram>
</mxfile>
